<svg width="129" height="24" viewBox="0 0 129 24" fill="none" xmlns="http://www.w3.org/2000/svg">
<path d="M0 0H129V6.19048L90.5954 3.80952L64.5 10L27.0802 3.33333L0 6.19048V0Z" fill="#EBEEFA"/>
<path fill-rule="evenodd" clip-rule="evenodd" d="M64.9236 5.63488C52.212 5.54236 40.1013 4.04235 29.857 2.77351C12.136 0.578611 1.73668e-05 -0.924526 1.66962e-05 6.74641C24.8951 4.98616 31.8569 10.0147 38.7087 14.9639C44.297 19.0003 49.8122 22.984 64.9236 23.1886L64.9236 5.63488Z" fill="#EBEEFA"/>
<path fill-rule="evenodd" clip-rule="evenodd" d="M64 5.63488C76.7116 5.54236 88.8223 4.04235 99.0666 2.77351C116.788 0.578611 128.924 -0.924526 128.924 6.74641C104.029 4.98616 97.0667 10.0147 90.2149 14.9639C84.6266 19.0003 79.1114 22.984 64 23.1886L64 5.63488Z" fill="#EBEEFA"/>
</svg>
